<svg width="6" height="11" viewBox="0 0 6 11" fill="none" xmlns="http://www.w3.org/2000/svg">
<path d="M4.53896 3.62987C4.33117 3.43506 4.12338 3.29221 3.92857 3.18831C3.73377 3.0974 3.51299 3.04545 3.26623 3.04545C2.98052 3.04545 2.77273 3.11039 2.62987 3.22727C2.48701 3.34416 2.40909 3.53896 2.40909 3.7987C2.40909 3.98052 2.48701 4.14935 2.64286 4.26623C2.7987 4.3961 2.98052 4.51299 3.21429 4.62987C3.44805 4.74675 3.69481 4.86364 3.95455 4.99351C4.21429 5.12338 4.46104 5.26623 4.69481 5.44805C4.92857 5.62987 5.11039 5.83766 5.26623 6.0974C5.42208 6.35714 5.5 6.66883 5.5 7.03247C5.5 7.59091 5.34416 8.07143 5.04545 8.47403C4.74675 8.87662 4.27922 9.13636 3.68182 9.27922V10.5H2.55195V9.33117C2.21429 9.29221 1.85065 9.2013 1.47403 9.04545C1.0974 8.88961 0.772727 8.69481 0.5 8.44805L1.25325 7.29221C1.55195 7.51299 1.83766 7.68182 2.0974 7.7987C2.37013 7.91558 2.64286 7.96753 2.91558 7.96753C3.24026 7.96753 3.48701 7.9026 3.62987 7.77273C3.78571 7.64286 3.86364 7.43506 3.86364 7.16234C3.86364 6.95455 3.78571 6.78571 3.62987 6.64286C3.47403 6.5 3.29221 6.37013 3.05844 6.24026C2.82468 6.11039 2.57792 5.98052 2.31818 5.85065C2.05844 5.72078 1.81169 5.56493 1.57792 5.38312C1.34416 5.2013 1.16234 4.99351 1.00649 4.74675C0.850649 4.5 0.772727 4.21429 0.772727 3.86364C0.772727 3.29221 0.928571 2.81169 1.24026 2.43506C1.55195 2.05844 1.99351 1.81169 2.53896 1.70779V0.5H3.66883V1.68182C4.04545 1.73377 4.37013 1.85065 4.65584 2.01948C4.94156 2.18831 5.18831 2.3961 5.42208 2.64286L4.53896 3.62987Z" fill="#FE9013"/>
</svg>
