<svg width="6" height="11" viewBox="0 0 6 11" fill="none" xmlns="http://www.w3.org/2000/svg">
<path d="M4.53945 3.62987C4.33166 3.43506 4.12386 3.29221 3.92906 3.18831C3.73425 3.0974 3.51348 3.04545 3.26672 3.04545C2.98101 3.04545 2.77322 3.11039 2.63036 3.22727C2.4875 3.34416 2.40958 3.53896 2.40958 3.7987C2.40958 3.98052 2.4875 4.14935 2.64335 4.26623C2.79919 4.3961 2.98101 4.51299 3.21477 4.62987C3.44854 4.74675 3.69529 4.86364 3.95503 4.99351C4.21477 5.12338 4.46153 5.26623 4.69529 5.44805C4.92906 5.62987 5.11088 5.83766 5.26672 6.0974C5.42257 6.35714 5.50049 6.66883 5.50049 7.03247C5.50049 7.59091 5.34464 8.07143 5.04594 8.47403C4.74724 8.87662 4.27971 9.13636 3.68231 9.27922V10.5H2.55244V9.33117C2.21477 9.29221 1.85114 9.2013 1.47451 9.04546C1.09789 8.88961 0.773216 8.6948 0.500488 8.44805L1.25374 7.29221C1.55244 7.51299 1.83815 7.68182 2.09789 7.7987C2.37062 7.91558 2.64335 7.96753 2.91607 7.96753C3.24075 7.96753 3.4875 7.9026 3.63036 7.77273C3.7862 7.64286 3.86412 7.43506 3.86412 7.16234C3.86412 6.95455 3.7862 6.78571 3.63036 6.64286C3.47451 6.5 3.2927 6.37013 3.05893 6.24026C2.82516 6.11039 2.57841 5.98052 2.31867 5.85065C2.05893 5.72078 1.81218 5.56493 1.57841 5.38312C1.34464 5.2013 1.16283 4.99351 1.00698 4.74675C0.851138 4.5 0.773216 4.21429 0.773216 3.86364C0.773216 3.29221 0.92906 2.81169 1.24075 2.43506C1.55244 2.05844 1.99399 1.81169 2.53945 1.70779V0.5H3.66932V1.68182C4.04594 1.73377 4.37062 1.85065 4.65633 2.01948C4.94205 2.18831 5.1888 2.3961 5.42257 2.64286L4.53945 3.62987Z" fill="#333B41"/>
</svg>
