<svg width="9" height="9" viewBox="0 0 9 9" fill="none" xmlns="http://www.w3.org/2000/svg">
<path d="M1.42866 8.48262C1.28437 8.48262 1.14009 8.42755 1.02995 8.31741C0.809677 8.09714 0.809677 7.74029 1.02995 7.52001L7.79686 0.753098C8.01714 0.532821 8.37399 0.532821 8.59427 0.753098C8.81454 0.973375 8.81454 1.33022 8.59427 1.5505L1.82736 8.31741C1.71722 8.42755 1.57294 8.48262 1.42866 8.48262Z" fill="#333B41"/>
<path d="M8.19557 8.48262C8.05128 8.48262 7.907 8.42755 7.79686 8.31741L1.02995 1.5505C0.809677 1.33022 0.809677 0.973375 1.02995 0.753098C1.25023 0.532821 1.60708 0.532821 1.82736 0.753098L8.59427 7.52001C8.81454 7.74029 8.81454 8.09714 8.59427 8.31741C8.48413 8.42755 8.33985 8.48262 8.19557 8.48262Z" fill="#333B41"/>
</svg>
