<svg width="16" height="16" viewBox="0 0 16 16" fill="none" xmlns="http://www.w3.org/2000/svg">
<path d="M1.92558 0.990153C1.73941 0.990202 1.55749 1.04577 1.40308 1.14975C1.24866 1.25373 1.12876 1.4014 1.05871 1.57388C0.988659 1.74636 0.971638 1.93581 1.00982 2.11802C1.04801 2.30022 1.13966 2.4669 1.27307 2.59674L7.16206 8.48573L1.27307 14.3747C1.18326 14.461 1.11155 14.5642 1.06216 14.6785C1.01276 14.7928 0.986667 14.9158 0.9854 15.0403C0.984133 15.1648 1.00772 15.2883 1.05478 15.4036C1.10184 15.5188 1.17143 15.6236 1.25947 15.7116C1.34751 15.7996 1.45223 15.8692 1.5675 15.9163C1.68277 15.9634 1.80627 15.9869 1.93077 15.9857C2.05527 15.9844 2.17827 15.9583 2.29256 15.9089C2.40684 15.8595 2.51013 15.7878 2.59636 15.698L8.48535 9.80902L14.3743 15.698C14.4606 15.7878 14.5639 15.8595 14.6781 15.9089C14.7924 15.9583 14.9154 15.9844 15.0399 15.9857C15.1644 15.987 15.2879 15.9634 15.4032 15.9163C15.5185 15.8692 15.6232 15.7997 15.7112 15.7116C15.7993 15.6236 15.8689 15.5189 15.9159 15.4036C15.963 15.2883 15.9866 15.1648 15.9853 15.0403C15.984 14.9158 15.9579 14.7928 15.9085 14.6785C15.8591 14.5642 15.7874 14.461 15.6976 14.3747L9.80863 8.48573L15.6976 2.59674C15.8329 2.46529 15.9252 2.29606 15.9626 2.11122C16 1.92638 15.9807 1.73456 15.9072 1.56089C15.8337 1.38721 15.7094 1.2398 15.5507 1.13795C15.392 1.03611 15.2062 0.984594 15.0177 0.990153C14.7746 0.997397 14.5438 1.09901 14.3743 1.27345L8.48535 7.16245L2.59636 1.27345C2.50915 1.18381 2.40486 1.11255 2.28965 1.06389C2.17444 1.01523 2.05064 0.99016 1.92558 0.990153Z" fill="white"/>
</svg>
